Format                           : AVI
Format/Info                      : Audio Video Interleave
File size                        : 1.43 GiB
Duration                         : 1h 45mn
Overall bit rate                 : 1 938 Kbps
Writing library                  : VirtualDub build 32839/release

Video
ID                               : 0
Format                           : MPEG-4 Visual
Format profile                   : Advanced Simple@L5
Format settings, BVOP            : 2
Format settings, QPel            : No
Format settings, GMC             : No warppoints
Format settings, Matrix          : Default (H.263)
Muxing mode                      : Packed bitstream
Codec ID                         : XVID
Codec ID/Hint                    : XviD
Duration                         : 1h 45mn
Bit rate                         : 1 735 Kbps
Width                            : 720 pixels
Height                           : 384 pixels
Display aspect ratio             : 1.875
Frame rate                       : 29.970 fps
Color space                      : YUV
Chroma subsampling               : 4:2:0
Bit depth                        : 8 bits
Scan type                        : Progressive
Compression mode                 : Lossy
Bits/(Pixel*Frame)               : 0.209
Stream size                      : 1.28 GiB (89%)
Writing library                  : XviD 63

Audio
ID                               : 1
Format                           : AC-3
Format/Info                      : Audio Coding 3
Mode extension                   : CM (complete main)
Codec ID                         : 2000
Duration                         : 1h 45mn
Bit rate mode                    : Constant
Bit rate                         : 192 Kbps
Channel(s)                       : 2 channels
Channel positions                : Front: L R
Sampling rate                    : 48.0 KHz
Bit depth                        : 16 bits
Compression mode                 : Lossy
Stream size                      : 146 MiB (10%)
Alignment                        : Aligned on interleaves
Interleave, duration             : 33 ms (1.00 video frame)
Interleave, preload duration     : 512 ms



 
http://www.imdb.com/title/tt1584730/








Storyline

Sexual Parasites, Disembowelment, Zombies, Serial Killers, Demon Children, Violent Vixens, Rabid Office Workers and Angry Embryos all spring to life from the flesh covered sketch books featured in Anthony G. Sumner's (Gallery of Fear) SLICES OF LIFE. Mira (Kaylee Williams) awakens in front of a seedy roadside motel with amnesia. She searches for clues to her identity in the pages of three bound sketchbooks, in which each book represents a different aspect of everyday life, maybe her life. WORK LIFE A lowly clerk at a nano technology firm unleashes a deadly virus at the office headquarters, giving new meaning to the term corporate zombie. HOME LIFE As local girls begin to disappear, a young pregnant woman is haunted by visions of evil demonic children hell bent on stealing her unborn fetus. SEX LIFE A young brother and sister on the run from a sexually abusive home life, take refuge in a.















Source Used

NTSC DVD-R STOCK .........Thanks



Greetz to IMAGiNE,Flawl3ss,DiLLoN,BDK,NOiR,TOXiC,THC,Ez,Rx,Boobyblue,TaRiQ786,LKRG,EP1C